<svg width="31" height="31" viewBox="0 0 31 31" fill="none" xmlns="http://www.w3.org/2000/svg">
<path d="M26.3227 4.66892C24.1812 2.52846 21.4532 1.07107 18.4835 0.48102C15.5138 -0.109025 12.4359 0.19478 9.63885 1.35402C6.84182 2.51326 4.45135 4.47587 2.76973 6.99367C1.0881 9.51147 0.190839 12.4714 0.191407 15.4991C0.191406 19.56 1.80404 23.4546 4.67477 26.3268C7.54549 29.1989 11.4393 30.8135 15.5002 30.8156C17.5097 30.8164 19.5 30.4236 21.3585 29.6593C23.2111 28.8773 24.8963 27.7469 26.3227 26.3293C27.7451 24.9072 28.8734 23.2188 29.6432 21.3605C30.413 19.5022 30.8092 17.5105 30.8092 15.4991C30.8092 13.4877 30.413 11.496 29.6432 9.63775C28.8734 7.77949 27.7451 6.09107 26.3227 4.66892ZM25.2435 25.2348C23.039 27.4487 20.1464 28.8461 17.0418 29.1968V19.0835H19.9402C20.349 19.0835 20.7412 18.9211 21.0303 18.632C21.3194 18.3428 21.4818 17.9507 21.4818 17.5418C21.4818 17.133 21.3194 16.7408 21.0303 16.4517C20.7412 16.1626 20.349 16.0002 19.9402 16.0002H17.0418V11.776C17.0418 11.3671 17.2042 10.975 17.4934 10.6859C17.7825 10.3968 18.1746 10.2343 18.5835 10.2343H20.4335C20.8424 10.2343 21.2345 10.0719 21.5236 9.78279C21.8127 9.49367 21.9752 9.10154 21.9752 8.69267C21.9752 8.28379 21.8127 7.89166 21.5236 7.60254C21.2345 7.31342 20.8424 7.151 20.4335 7.151H17.8127C16.7905 7.151 15.8101 7.55706 15.0873 8.27986C14.3646 9.00266 13.9585 9.98298 13.9585 11.0052V16.0002H11.0756C10.6667 16.0002 10.2746 16.1626 9.98545 16.4517C9.69633 16.7408 9.53391 17.133 9.53391 17.5418C9.53391 17.9507 9.69633 18.3428 9.98545 18.632C10.2746 18.9211 10.6667 19.0835 11.0756 19.0835H13.9585V29.1968C11.0954 28.8702 8.40738 27.6523 6.27397 25.7152C4.14057 23.7782 2.66966 21.2198 2.069 18.4015C1.46835 15.5831 1.76831 12.6473 2.92652 10.0087C4.08474 7.37011 6.04266 5.16206 8.52373 3.69646C11.0048 2.23086 13.8836 1.58178 16.7536 1.84091C19.6235 2.10004 22.3395 3.25427 24.5179 5.14058C26.6964 7.02689 28.2271 9.54993 28.894 12.3533C29.5608 15.1567 29.3301 18.0988 28.2343 20.7639C27.5364 22.4339 26.5207 23.9523 25.2435 25.2348Z" fill="black" fill-opacity="0.5"/>
</svg>
