<svg width="38" height="37" viewBox="0 0 38 37" fill="none" xmlns="http://www.w3.org/2000/svg">
<path d="M18.9981 11.373C17.0564 11.373 15.1941 12.1241 13.8211 13.461C12.4481 14.7979 11.6768 16.6111 11.6768 18.5017C11.6768 20.3924 12.4481 22.2056 13.8211 23.5424C15.1941 24.8793 17.0564 25.6304 18.9981 25.6304C20.9398 25.6304 22.802 24.8793 24.1751 23.5424C25.5481 22.2056 26.3194 20.3924 26.3194 18.5017C26.3194 16.6111 25.5481 14.7979 24.1751 13.461C22.802 12.1241 20.9398 11.373 18.9981 11.373ZM18.9981 23.1313C17.7366 23.1313 16.5268 22.6434 15.6349 21.7749C14.7429 20.9064 14.2418 19.7284 14.2418 18.5002C14.2418 17.2719 14.7429 16.094 15.6349 15.2254C16.5268 14.3569 17.7366 13.869 18.9981 13.869C20.2595 13.869 21.4693 14.3569 22.3613 15.2254C23.2533 16.094 23.7544 17.2719 23.7544 18.5002C23.7544 19.7284 23.2533 20.9064 22.3613 21.7749C21.4693 22.6434 20.2595 23.1313 18.9981 23.1313Z" fill="black" fill-opacity="0.5"/>
<path d="M26.6092 12.7731C27.5518 12.7731 28.316 12.029 28.316 11.1111C28.316 10.1933 27.5518 9.44922 26.6092 9.44922C25.6665 9.44922 24.9023 10.1933 24.9023 11.1111C24.9023 12.029 25.6665 12.7731 26.6092 12.7731Z" fill="black" fill-opacity="0.5"/>
<path d="M32.5106 9.42111C32.144 8.49947 31.5839 7.6625 30.866 6.96378C30.1482 6.26506 29.2884 5.71998 28.3417 5.36344C27.2339 4.95853 26.0635 4.73959 24.8805 4.71594C23.3557 4.65119 22.8728 4.63269 19.0063 4.63269C15.1398 4.63269 14.6442 4.63269 13.1322 4.71594C11.95 4.73838 10.7805 4.95737 9.67417 5.36344C8.72723 5.71957 7.86721 6.2645 7.14928 6.96327C6.43135 7.66204 5.87136 8.49923 5.50525 9.42111C5.08932 10.4997 4.86497 11.6393 4.84183 12.7912C4.77375 14.2743 4.75317 14.7445 4.75317 18.5108C4.75317 22.2755 4.75317 22.755 4.84183 24.2304C4.86558 25.3835 5.08883 26.5213 5.50525 27.602C5.87239 28.5235 6.43292 29.3604 7.15102 30.0591C7.86913 30.7577 8.72902 31.3029 9.67575 31.6596C10.78 32.0808 11.95 32.3154 13.1353 32.3534C14.6601 32.4181 15.143 32.4382 19.0095 32.4382C22.876 32.4382 23.3716 32.4382 24.8837 32.3534C26.0666 32.33 27.2369 32.1116 28.3448 31.7074C29.2913 31.3501 30.1508 30.8045 30.8686 30.1056C31.5864 29.4067 32.1467 28.5698 32.5137 27.6482C32.9302 26.5691 33.1534 25.4313 33.1772 24.2782C33.2452 22.7951 33.2658 22.3249 33.2658 18.5586C33.2658 14.7923 33.2658 14.3144 33.1772 12.839C33.1587 11.6708 32.9332 10.5145 32.5106 9.42111ZM30.5821 24.1163C30.5719 25.0047 30.4053 25.8849 30.0897 26.7186C29.8519 27.3181 29.4879 27.8625 29.021 28.3168C28.5542 28.7711 27.9948 29.1252 27.379 29.3564C26.5323 29.6623 25.6379 29.8245 24.7348 29.8359C23.2307 29.9037 22.8063 29.9207 18.9493 29.9207C15.0892 29.9207 14.6949 29.9206 13.1622 29.8359C12.2596 29.8251 11.3657 29.6629 10.5197 29.3564C9.90167 29.1267 9.34009 28.7732 8.87124 28.3188C8.4024 27.8644 8.03674 27.3193 7.79792 26.7186C7.48671 25.8939 7.32024 25.0241 7.3055 24.1456C7.23742 22.681 7.22158 22.2678 7.22158 18.5123C7.22158 14.7553 7.22158 14.3714 7.3055 12.8775C7.31573 11.9896 7.48229 11.1099 7.79792 10.2767C8.28083 9.06036 9.27042 8.10298 10.5197 7.6374C11.3661 7.33236 12.2598 7.17022 13.1622 7.15794C14.668 7.09165 15.0908 7.07315 18.9493 7.07315C22.8079 7.07315 23.2038 7.07315 24.7348 7.15794C25.638 7.16852 26.5325 7.33072 27.379 7.6374C27.9948 7.86907 28.5541 8.22354 29.0209 8.67807C29.4877 9.1326 29.8517 9.67713 30.0897 10.2767C30.4009 11.1014 30.5673 11.9713 30.5821 12.8498C30.6502 14.3159 30.6676 14.7275 30.6676 18.4846C30.6676 22.2401 30.6676 22.644 30.5995 24.1178H30.5821V24.1163Z" fill="black" fill-opacity="0.5"/>
</svg>
