<svg width="32" height="33" viewBox="0 0 32 33" fill="none" xmlns="http://www.w3.org/2000/svg">
<path d="M19.515 12.3255C18.837 12.3255 18.335 12.5019 17.942 12.7246C17.879 12.4936 17.672 12.3245 17.428 12.375H14.444C14.149 12.3245 13.91 12.571 14.001 12.8907V24.2344C13.91 24.5232 14.149 24.7707 14.444 24.75H17.428C17.723 24.7707 17.962 24.5232 17.962 24.2189L17.961 17.3632C17.96 17.3601 17.949 17.0322 18.15 16.8063C18.311 16.6269 18.588 16.5351 18.971 16.5351C19.609 16.5351 19.893 16.8042 19.999 17.4065V24.2189C19.894 24.5232 20.133 24.7707 20.428 24.75H23.573C23.868 24.7707 24.107 24.5232 24.001 24.2189V17.1776C24.106 13.5971 21.633 12.3255 19.515 12.3255ZM23.038 23.7188H20.962V17.4065C20.962 16.1886 20.199 15.4337 18.972 15.4337C18.278 15.4337 17.738 15.6441 17.366 16.0587C16.849 16.6362 16.889 17.3683 17 17.5313V23.7188H14.978V13.4269H16.894V13.7734C16.8932 13.8766 16.9207 13.978 16.9733 14.0658C17.0258 14.1537 17.1014 14.2244 17.1912 14.27C17.281 14.3155 17.3815 14.3341 17.481 14.3234C17.5806 14.3127 17.6752 14.2733 17.754 14.2096L17.894 14.0982C18.299 13.7693 18.718 13.4279 19.516 13.4279C20.342 13.4279 23.039 13.6992 23.039 17.1786L23.038 23.7188ZM11 7.18372C9.878 7.18372 8.966 8.12422 8.966 9.28128C8.966 10.4383 9.878 11.3788 11 11.3788C12.122 11.3788 13.034 10.4383 13.034 9.28128C13.034 8.12422 12.122 7.18372 11 7.18372ZM11 10.2775C10.468 10.2775 10.034 9.8299 10.034 9.28128C10.034 8.73265 10.468 8.28509 11 8.28509C11.532 8.28509 11.966 8.73265 11.966 9.28128C11.966 9.8299 11.532 10.2775 11 10.2775ZM12.428 12.3245H9.46C9.165 12.3245 8.926 12.571 9 12.8907V24.2344C8.926 24.5232 9.165 24.7707 9.46 24.75H12.428C12.723 24.7707 12.962 24.5232 12.962 24.2189V12.8752C12.962 12.7291 12.9057 12.5891 12.8056 12.4858C12.7055 12.3825 12.5696 12.3245 12.428 12.3245ZM12 23.7188H9.994V13.4269H12V23.7188Z" fill="black" fill-opacity="0.5"/>
<path d="M16 -0.0350342C7.158 -0.0350342 -0.0339966 7.38172 -0.0339966 16.5C-0.0339966 25.6183 7.158 33.0351 16 33.0351C24.842 33.0351 32.034 25.6183 32.034 16.5C32.034 7.38172 24.842 -0.0350342 16 -0.0350342ZM16 31.9337C7.748 31.9337 1.034 25.0099 1.034 16.5C1.034 7.99016 7.748 1.06634 16 1.06634C24.252 1.06634 30.966 7.99016 30.966 16.5C30.966 25.0099 24.252 31.9337 16 31.9337Z" fill="black" fill-opacity="0.5"/>
</svg>
